<svg width="24" height="24" viewBox="0 0 24 24" fill="none" xmlns="http://www.w3.org/2000/svg">
<path d="M5.075 12H8C8.18333 12 8.35833 12.046 8.525 12.138C8.69167 12.23 8.81667 12.3673 8.9 12.55L10 14.75L13.1 8.55C13.2833 8.16667 13.5833 7.975 14 7.975C14.4167 7.975 14.7167 8.16667 14.9 8.55L16.625 12H18.925C18.675 10.3 17.9 8.875 16.6 7.725C15.3 6.575 13.7667 6 12 6C10.2333 6 8.7 6.575 7.4 7.725C6.1 8.875 5.325 10.3 5.075 12ZM12 20C13.7667 20 15.3 19.425 16.6 18.275C17.9 17.125 18.675 15.7 18.925 14H16C15.8167 14 15.6417 13.9543 15.475 13.863C15.3083 13.7717 15.1833 13.634 15.1 13.45L14 11.25L10.9 17.45C10.7167 17.8333 10.4167 18.025 10 18.025C9.58333 18.025 9.28333 17.8333 9.1 17.45L7.375 14H5.075C5.325 15.7 6.1 17.125 7.4 18.275C8.7 19.425 10.2333 20 12 20ZM12 22C10.7667 22 9.60433 21.7627 8.513 21.288C7.42167 20.8133 6.46733 20.1673 5.65 19.35C4.83267 18.5327 4.187 17.5783 3.713 16.487C3.239 15.3957 3.00133 14.2333 3 13H5C5 14.9333 5.68333 16.5833 7.05 17.95C8.41667 19.3167 10.0667 20 12 20C13.9333 20 15.5833 19.3167 16.95 17.95C18.3167 16.5833 19 14.9333 19 13H21C21 14.2333 20.7627 15.396 20.288 16.488C19.8133 17.58 19.1673 18.534 18.35 19.35C17.5327 20.166 16.5783 20.812 15.487 21.288C14.3957 21.764 13.2333 22.0013 12 22ZM3 13C3 11.7667 3.23767 10.604 3.713 9.512C4.18833 8.42 4.834 7.466 5.65 6.65C6.466 5.834 7.42033 5.18833 8.513 4.713C9.60567 4.23767 10.768 4 12 4C13.0333 4 14.025 4.16667 14.975 4.5C15.925 4.83333 16.8167 5.31667 17.65 5.95L19.05 4.55L20.45 5.95L19.05 7.35C19.6833 8.18333 20.1667 9.075 20.5 10.025C20.8333 10.975 21 11.9667 21 13H19C19 11.0667 18.3167 9.41667 16.95 8.05C15.5833 6.68333 13.9333 6 12 6C10.0667 6 8.41667 6.68333 7.05 8.05C5.68333 9.41667 5 11.0667 5 13H3ZM9 3V1H15V3H9ZM12 20C10.0667 20 8.41667 19.3167 7.05 17.95C5.68333 16.5833 5 14.9333 5 13C5 11.0667 5.68333 9.41667 7.05 8.05C8.41667 6.68333 10.0667 6 12 6C13.9333 6 15.5833 6.68333 16.95 8.05C18.3167 9.41667 19 11.0667 19 13C19 14.9333 18.3167 16.5833 16.95 17.95C15.5833 19.3167 13.9333 20 12 20Z" fill="#333333"/>
</svg>
